<?xml version="1.0" standalone="no"?>
<!DOCTYPE svg PUBLIC "-//W3C//DTD SVG 20010904//EN"
 "http://www.w3.org/TR/2001/REC-SVG-20010904/DTD/svg10.dtd">
<svg version="1.0" xmlns="http://www.w3.org/2000/svg"
 width="512.000000pt" height="512.000000pt" viewBox="0 0 512.000000 512.000000"
 preserveAspectRatio="xMidYMid meet">

<g transform="translate(0.000000,512.000000) scale(0.100000,-0.100000)"
fill="#000000" stroke="none">
<path d="M1641 4784 c-83 -22 -165 -71 -224 -133 -99 -104 -137 -210 -137
-383 l0 -108 -108 0 c-65 0 -131 -6 -167 -15 -172 -45 -305 -179 -350 -352
-23 -86 -23 -3020 0 -3106 45 -173 178 -307 350 -352 52 -13 211 -15 1235 -15
1293 0 1231 -3 1351 61 32 17 83 57 112 88 99 104 137 210 137 383 l0 108 108
0 c65 0 131 6 167 15 172 45 305 179 350 352 23 86 23 3020 0 3106 -45 173
-178 307 -350 352 -86 22 -2391 22 -2474 -1z m2445 -330 c15 -11 37 -33 48
-48 21 -27 21 -28 21 -1525 l0 -1498 -29 -37 c-53 -71 29 -67 -1260 -64 -1159
3 -1165 3 -1192 24 -15 11 -37 33 -48 48 -21 27 -21 31 -24 1499 -1 810 0
1486 3 1504 7 40 49 91 90 109 24 11 242 13 1197 11 1161 -2 1167 -2 1194 -23z
m-2806 -1842 c0 -1351 -3 -1282 61 -1403 38 -70 126 -157 197 -193 113 -57 87
-56 1075 -56 l909 0 -4 -108 c-3 -102 -5 -111 -32 -146 -53 -71 28 -67 -1260
-64 -1159 3 -1165 3 -1192 24 -15 11 -37 33 -48 48 -21 27 -21 31 -24 1499 -1
810 0 1486 3 1504 7 40 49 91 90 109 18 8 69 13 128 14 l97 0 0 -1228z"/>
</g>
</svg>
