<?xml version="1.0" standalone="no"?>
<!DOCTYPE svg PUBLIC "-//W3C//DTD SVG 20010904//EN"
 "http://www.w3.org/TR/2001/REC-SVG-20010904/DTD/svg10.dtd">
<svg version="1.0" xmlns="http://www.w3.org/2000/svg"
 width="512.000000pt" height="512.000000pt" viewBox="0 0 512.000000 512.000000"
 preserveAspectRatio="xMidYMid meet">

<g transform="translate(0.000000,512.000000) scale(0.100000,-0.100000)"
fill="#000000" stroke="none">
<path d="M2740 4984 c-33 -6 -106 -23 -153 -35 l-38 -10 59 -63 c250 -267 374
-573 375 -926 1 -269 -67 -509 -203 -718 -26 -41 -39 -71 -35 -82 13 -40 183
-37 354 6 299 75 544 304 646 604 35 102 46 176 46 298 0 361 -201 681 -526
838 -127 62 -224 85 -375 89 -69 2 -136 2 -150 -1z"/>
<path d="M1520 4974 c-19 -3 -73 -14 -119 -26 -377 -92 -667 -384 -764 -768
-18 -70 -21 -113 -21 -240 1 -134 5 -169 28 -255 120 -455 533 -775 1001 -775
390 0 749 220 924 568 176 349 137 777 -99 1091 -142 188 -342 319 -580 380
-84 22 -288 35 -370 25z"/>
<path d="M3625 3083 c-169 -134 -394 -228 -618 -258 l-47 -6 76 -84 c66 -72
138 -165 206 -265 14 -22 18 -24 38 -12 125 76 291 139 454 174 157 34 461 29
589 -8 31 -10 7 24 -100 136 -106 112 -216 202 -338 278 -72 44 -180 103 -187
102 -2 -1 -34 -26 -73 -57z"/>
<path d="M2325 2789 c-224 -137 -534 -207 -798 -180 -201 20 -391 80 -552 175
-42 25 -83 46 -90 46 -31 0 -234 -149 -333 -244 -309 -298 -496 -699 -542
-1165 -5 -57 -10 -365 -10 -697 l0 -594 1563 0 1562 0 -67 61 c-220 197 -374
469 -440 772 -31 144 -31 417 0 560 55 249 175 488 331 659 34 36 61 70 61 75
0 16 -118 182 -177 250 -97 111 -238 223 -383 306 l-45 25 -80 -49z"/>
<path d="M3829 2340 c-409 -74 -732 -347 -872 -737 -85 -234 -76 -542 22 -780
106 -257 294 -456 546 -579 417 -203 906 -129 1241 188 271 256 398 623 339
983 -71 439 -392 790 -825 905 -67 18 -118 23 -245 26 -88 1 -181 -1 -206 -6z
m331 -700 l0 -250 250 0 250 0 0 -150 0 -150 -250 0 -250 0 0 -250 0 -250
-150 0 -150 0 -2 248 -3 247 -247 3 -248 2 0 150 0 150 248 2 247 3 3 248 2
247 150 0 150 0 0 -250z"/>
</g>
</svg>
